<mxfile host="app.diagrams.net" agent="Mozilla/5.0 (Windows NT 10.0; Win64; x64) AppleWebKit/537.36 (KHTML, like Gecko) Chrome/140.0.0.0 Safari/537.36 Edg/140.0.0.0" version="28.2.8">
  <diagram name="Page-1" id="Gxm0UhKNNPYb4qAKGL-2">
    <mxGraphModel dx="864" dy="2136" grid="1" gridSize="10" guides="1" tooltips="1" connect="1" arrows="1" fold="1" page="1" pageScale="1" pageWidth="1169" pageHeight="1654" background="#ffffff" math="0" shadow="0">
      <root>
        <mxCell id="0" />
        <mxCell id="1" parent="0" />
        <mxCell id="vk3QnmqRLiSh6UPp8PLl-1" value="&lt;font face=&quot;Helvetica&quot; style=&quot;font-size: 14px;&quot;&gt;Students&lt;/font&gt;" style="shape=umlActor;verticalLabelPosition=bottom;verticalAlign=top;html=1;fontFamily=Times New Roman;noLabel=0;labelBackgroundColor=default;" vertex="1" parent="1">
          <mxGeometry x="70" y="80" width="40" height="60" as="geometry" />
        </mxCell>
        <mxCell id="vk3QnmqRLiSh6UPp8PLl-2" value="&lt;font style=&quot;font-size: 14px;&quot; face=&quot;Helvetica&quot;&gt;Instructors&lt;/font&gt;" style="shape=umlActor;verticalLabelPosition=bottom;verticalAlign=top;html=1;labelBackgroundColor=default;" vertex="1" parent="1">
          <mxGeometry x="70" y="250" width="40" height="60" as="geometry" />
        </mxCell>
        <mxCell id="vk3QnmqRLiSh6UPp8PLl-4" value="" style="whiteSpace=wrap;html=1;labelBackgroundColor=default;fontStyle=1" vertex="1" parent="1">
          <mxGeometry x="150" y="-10" width="530" height="980" as="geometry" />
        </mxCell>
        <mxCell id="vk3QnmqRLiSh6UPp8PLl-13" value="&lt;font style=&quot;font-size: 16px;&quot;&gt;browse courses&lt;/font&gt;" style="ellipse;whiteSpace=wrap;html=1;labelBackgroundColor=default;" vertex="1" parent="1">
          <mxGeometry x="200" y="40" width="140" height="70" as="geometry" />
        </mxCell>
        <mxCell id="vk3QnmqRLiSh6UPp8PLl-14" value="&lt;font style=&quot;font-size: 17px;&quot;&gt;enroll&lt;/font&gt;" style="ellipse;whiteSpace=wrap;html=1;labelBackgroundColor=default;" vertex="1" parent="1">
          <mxGeometry x="200" y="115" width="140" height="70" as="geometry" />
        </mxCell>
        <mxCell id="vk3QnmqRLiSh6UPp8PLl-15" value="&lt;font style=&quot;font-size: 13px;&quot;&gt;create &amp;amp; manage courses&lt;/font&gt;" style="ellipse;whiteSpace=wrap;html=1;labelBackgroundColor=default;" vertex="1" parent="1">
          <mxGeometry x="190" y="470" width="160" height="70" as="geometry" />
        </mxCell>
        <mxCell id="vk3QnmqRLiSh6UPp8PLl-16" value="&lt;font style=&quot;font-size: 16px;&quot;&gt;upload lessons&lt;/font&gt;" style="ellipse;whiteSpace=wrap;html=1;labelBackgroundColor=default;" vertex="1" parent="1">
          <mxGeometry x="200" y="574" width="140" height="70" as="geometry" />
        </mxCell>
        <mxCell id="vk3QnmqRLiSh6UPp8PLl-17" value="&lt;font style=&quot;font-size: 16px;&quot;&gt;design&amp;nbsp;quizzes&lt;/font&gt;" style="ellipse;whiteSpace=wrap;html=1;labelBackgroundColor=default;" vertex="1" parent="1">
          <mxGeometry x="200" y="656" width="140" height="70" as="geometry" />
        </mxCell>
        <mxCell id="vk3QnmqRLiSh6UPp8PLl-20" value="&lt;font style=&quot;font-size: 26px;&quot;&gt;&lt;b style=&quot;&quot;&gt;Skill Forge&lt;/b&gt;&lt;/font&gt;" style="text;html=1;whiteSpace=wrap;strokeColor=none;fillColor=none;align=center;verticalAlign=middle;rounded=0;labelBackgroundColor=default;" vertex="1" parent="1">
          <mxGeometry x="300" width="230" height="30" as="geometry" />
        </mxCell>
        <mxCell id="vk3QnmqRLiSh6UPp8PLl-21" value="&lt;font style=&quot;font-size: 14px;&quot;&gt;Admins&lt;/font&gt;" style="shape=umlActor;verticalLabelPosition=bottom;verticalAlign=top;html=1;outlineConnect=0;labelBackgroundColor=default;" vertex="1" parent="1">
          <mxGeometry x="67.5" y="420" width="45" height="60" as="geometry" />
        </mxCell>
        <mxCell id="vk3QnmqRLiSh6UPp8PLl-24" value="&lt;font style=&quot;font-size: 15px;&quot;&gt;manage users&lt;/font&gt;" style="ellipse;whiteSpace=wrap;html=1;labelBackgroundColor=default;" vertex="1" parent="1">
          <mxGeometry x="200" y="733" width="140" height="70" as="geometry" />
        </mxCell>
        <mxCell id="vk3QnmqRLiSh6UPp8PLl-25" value="&lt;font&gt;approve or remove courses&lt;/font&gt;" style="ellipse;whiteSpace=wrap;html=1;labelBackgroundColor=default;" vertex="1" parent="1">
          <mxGeometry x="190" y="808" width="160" height="70" as="geometry" />
        </mxCell>
        <mxCell id="vk3QnmqRLiSh6UPp8PLl-26" value="&lt;font style=&quot;font-size: 16px;&quot;&gt;monitor&amp;nbsp;platform&lt;/font&gt;" style="ellipse;whiteSpace=wrap;html=1;labelBackgroundColor=default;" vertex="1" parent="1">
          <mxGeometry x="200" y="882" width="140" height="70" as="geometry" />
        </mxCell>
        <mxCell id="vk3QnmqRLiSh6UPp8PLl-29" value="" style="endArrow=none;html=1;rounded=0;labelBackgroundColor=default;entryX=0;entryY=0;entryDx=0;entryDy=0;" edge="1" parent="1" target="vk3QnmqRLiSh6UPp8PLl-13">
          <mxGeometry relative="1" as="geometry">
            <mxPoint x="90" y="110" as="sourcePoint" />
            <mxPoint x="200" y="90" as="targetPoint" />
          </mxGeometry>
        </mxCell>
        <mxCell id="vk3QnmqRLiSh6UPp8PLl-36" value="" style="endArrow=none;html=1;rounded=0;labelBackgroundColor=default;" edge="1" parent="1" source="vk3QnmqRLiSh6UPp8PLl-14">
          <mxGeometry relative="1" as="geometry">
            <mxPoint x="340" y="290" as="sourcePoint" />
            <mxPoint x="90" y="110" as="targetPoint" />
            <Array as="points" />
          </mxGeometry>
        </mxCell>
        <mxCell id="vk3QnmqRLiSh6UPp8PLl-37" value="" style="endArrow=none;html=1;rounded=0;entryX=0.5;entryY=0.5;entryDx=0;entryDy=0;entryPerimeter=0;exitX=0.036;exitY=0.671;exitDx=0;exitDy=0;exitPerimeter=0;labelBackgroundColor=default;" edge="1" parent="1" source="vk3QnmqRLiSh6UPp8PLl-15" target="vk3QnmqRLiSh6UPp8PLl-2">
          <mxGeometry relative="1" as="geometry">
            <mxPoint x="340" y="290" as="sourcePoint" />
            <mxPoint x="500" y="290" as="targetPoint" />
          </mxGeometry>
        </mxCell>
        <mxCell id="vk3QnmqRLiSh6UPp8PLl-38" value="" style="endArrow=none;html=1;rounded=0;entryX=0;entryY=0.5;entryDx=0;entryDy=0;labelBackgroundColor=default;" edge="1" parent="1" target="vk3QnmqRLiSh6UPp8PLl-16">
          <mxGeometry relative="1" as="geometry">
            <mxPoint x="90" y="280" as="sourcePoint" />
            <mxPoint x="500" y="290" as="targetPoint" />
          </mxGeometry>
        </mxCell>
        <mxCell id="vk3QnmqRLiSh6UPp8PLl-39" value="" style="endArrow=none;html=1;rounded=0;entryX=0.036;entryY=0.343;entryDx=0;entryDy=0;entryPerimeter=0;exitX=0.5;exitY=0.5;exitDx=0;exitDy=0;exitPerimeter=0;labelBackgroundColor=default;" edge="1" parent="1" source="vk3QnmqRLiSh6UPp8PLl-2" target="vk3QnmqRLiSh6UPp8PLl-17">
          <mxGeometry relative="1" as="geometry">
            <mxPoint x="340" y="290" as="sourcePoint" />
            <mxPoint x="500" y="290" as="targetPoint" />
          </mxGeometry>
        </mxCell>
        <mxCell id="vk3QnmqRLiSh6UPp8PLl-40" value="" style="endArrow=none;html=1;rounded=0;exitX=0.5;exitY=0.5;exitDx=0;exitDy=0;exitPerimeter=0;labelBackgroundColor=default;entryX=0;entryY=0.5;entryDx=0;entryDy=0;" edge="1" parent="1" source="vk3QnmqRLiSh6UPp8PLl-21" target="vk3QnmqRLiSh6UPp8PLl-24">
          <mxGeometry relative="1" as="geometry">
            <mxPoint x="340" y="490" as="sourcePoint" />
            <mxPoint x="200" y="460" as="targetPoint" />
          </mxGeometry>
        </mxCell>
        <mxCell id="vk3QnmqRLiSh6UPp8PLl-41" value="" style="endArrow=none;html=1;rounded=0;labelBackgroundColor=default;entryX=0;entryY=0.357;entryDx=0;entryDy=0;entryPerimeter=0;" edge="1" parent="1" target="vk3QnmqRLiSh6UPp8PLl-25">
          <mxGeometry relative="1" as="geometry">
            <mxPoint x="90" y="450" as="sourcePoint" />
            <mxPoint x="500" y="490" as="targetPoint" />
          </mxGeometry>
        </mxCell>
        <mxCell id="vk3QnmqRLiSh6UPp8PLl-42" value="" style="endArrow=none;html=1;rounded=0;exitX=0.5;exitY=0.5;exitDx=0;exitDy=0;exitPerimeter=0;entryX=0;entryY=0.5;entryDx=0;entryDy=0;labelBackgroundColor=default;" edge="1" parent="1" source="vk3QnmqRLiSh6UPp8PLl-21" target="vk3QnmqRLiSh6UPp8PLl-26">
          <mxGeometry relative="1" as="geometry">
            <mxPoint x="100" y="450" as="sourcePoint" />
            <mxPoint x="500" y="490" as="targetPoint" />
          </mxGeometry>
        </mxCell>
        <mxCell id="vk3QnmqRLiSh6UPp8PLl-60" value="&lt;span style=&quot;font-size: 15px;&quot;&gt;earn certificates&lt;/span&gt;" style="ellipse;whiteSpace=wrap;html=1;" vertex="1" parent="1">
          <mxGeometry x="200" y="190" width="140" height="70" as="geometry" />
        </mxCell>
        <mxCell id="vk3QnmqRLiSh6UPp8PLl-61" value="" style="endArrow=none;html=1;rounded=0;labelBackgroundColor=default;exitX=0;exitY=0.5;exitDx=0;exitDy=0;" edge="1" parent="1" source="vk3QnmqRLiSh6UPp8PLl-60">
          <mxGeometry relative="1" as="geometry">
            <mxPoint x="227" y="199" as="sourcePoint" />
            <mxPoint x="90" y="110" as="targetPoint" />
            <Array as="points" />
          </mxGeometry>
        </mxCell>
        <mxCell id="vk3QnmqRLiSh6UPp8PLl-64" value="&amp;lt;&amp;lt;include&amp;gt;&amp;gt;" style="html=1;verticalAlign=bottom;labelBackgroundColor=none;endArrow=open;endFill=0;dashed=1;rounded=0;entryX=0.5;entryY=0;entryDx=0;entryDy=0;exitX=0.5;exitY=1;exitDx=0;exitDy=0;" edge="1" parent="1" source="vk3QnmqRLiSh6UPp8PLl-60" target="vk3QnmqRLiSh6UPp8PLl-65">
          <mxGeometry width="160" relative="1" as="geometry">
            <mxPoint x="340" y="230" as="sourcePoint" />
            <mxPoint x="490" y="230" as="targetPoint" />
          </mxGeometry>
        </mxCell>
        <mxCell id="vk3QnmqRLiSh6UPp8PLl-65" value="&lt;font style=&quot;font-size: 14px;&quot;&gt;complete lessons&lt;/font&gt;" style="ellipse;whiteSpace=wrap;html=1;" vertex="1" parent="1">
          <mxGeometry x="200" y="294" width="140" height="70" as="geometry" />
        </mxCell>
        <mxCell id="vk3QnmqRLiSh6UPp8PLl-67" value="&lt;span style=&quot;font-size: 14px;&quot;&gt;complete&amp;nbsp;&lt;/span&gt;&lt;font style=&quot;font-size: 13px;&quot;&gt;quizzes&lt;/font&gt;" style="ellipse;whiteSpace=wrap;html=1;" vertex="1" parent="1">
          <mxGeometry x="200" y="394" width="140" height="70" as="geometry" />
        </mxCell>
        <mxCell id="vk3QnmqRLiSh6UPp8PLl-69" value="&amp;lt;&amp;lt;include&amp;gt;&amp;gt;" style="html=1;verticalAlign=bottom;labelBackgroundColor=none;endArrow=open;endFill=0;dashed=1;rounded=0;entryX=0.5;entryY=0;entryDx=0;entryDy=0;exitX=0.5;exitY=1;exitDx=0;exitDy=0;" edge="1" parent="1" source="vk3QnmqRLiSh6UPp8PLl-65" target="vk3QnmqRLiSh6UPp8PLl-67">
          <mxGeometry width="160" relative="1" as="geometry">
            <mxPoint x="330" y="220" as="sourcePoint" />
            <mxPoint x="490" y="220" as="targetPoint" />
          </mxGeometry>
        </mxCell>
        <mxCell id="vk3QnmqRLiSh6UPp8PLl-70" value="" style="endArrow=none;html=1;rounded=0;entryX=0.086;entryY=0.214;entryDx=0;entryDy=0;entryPerimeter=0;" edge="1" parent="1" target="vk3QnmqRLiSh6UPp8PLl-65">
          <mxGeometry relative="1" as="geometry">
            <mxPoint x="90" y="110" as="sourcePoint" />
            <mxPoint x="200" y="310" as="targetPoint" />
          </mxGeometry>
        </mxCell>
        <mxCell id="vk3QnmqRLiSh6UPp8PLl-71" value="" style="endArrow=none;html=1;rounded=0;entryX=0.064;entryY=0.286;entryDx=0;entryDy=0;entryPerimeter=0;" edge="1" parent="1" target="vk3QnmqRLiSh6UPp8PLl-67">
          <mxGeometry relative="1" as="geometry">
            <mxPoint x="90" y="110" as="sourcePoint" />
            <mxPoint x="490" y="320" as="targetPoint" />
          </mxGeometry>
        </mxCell>
        <mxCell id="vk3QnmqRLiSh6UPp8PLl-72" value="&amp;lt;&amp;lt;include&amp;gt;&amp;gt;" style="html=1;verticalAlign=bottom;labelBackgroundColor=none;endArrow=open;endFill=0;dashed=1;rounded=0;exitX=0.5;exitY=1;exitDx=0;exitDy=0;entryX=0.5;entryY=0;entryDx=0;entryDy=0;" edge="1" parent="1" source="vk3QnmqRLiSh6UPp8PLl-15" target="vk3QnmqRLiSh6UPp8PLl-16">
          <mxGeometry width="160" relative="1" as="geometry">
            <mxPoint x="330" y="470" as="sourcePoint" />
            <mxPoint x="490" y="470" as="targetPoint" />
          </mxGeometry>
        </mxCell>
        <mxCell id="vk3QnmqRLiSh6UPp8PLl-73" value="&amp;lt;&amp;lt;include&amp;gt;&amp;gt;" style="html=1;verticalAlign=bottom;labelBackgroundColor=none;endArrow=open;endFill=0;dashed=1;rounded=0;exitX=0.919;exitY=0.771;exitDx=0;exitDy=0;exitPerimeter=0;entryX=1;entryY=0.5;entryDx=0;entryDy=0;" edge="1" parent="1" source="vk3QnmqRLiSh6UPp8PLl-15" target="vk3QnmqRLiSh6UPp8PLl-17">
          <mxGeometry width="160" relative="1" as="geometry">
            <mxPoint x="330" y="670" as="sourcePoint" />
            <mxPoint x="490" y="670" as="targetPoint" />
            <Array as="points">
              <mxPoint x="380" y="600" />
            </Array>
          </mxGeometry>
        </mxCell>
      </root>
    </mxGraphModel>
  </diagram>
</mxfile>
